<svg width="114" height="88" viewBox="0 0 114 88" fill="none" xmlns="http://www.w3.org/2000/svg">
<path d="M42.0055 81.4423C43.1793 81.4423 44.1354 80.4862 44.1354 79.3118C44.1354 78.1363 43.1793 77.1804 42.0055 77.1804C40.8286 77.1804 39.8726 78.1363 39.8726 79.3118C39.8724 80.4862 40.8285 81.4423 42.0055 81.4423Z" fill="black"/>
<path d="M27.6984 81.1891C28.7346 81.1891 29.5783 80.3474 29.5783 79.3114C29.5783 78.2751 28.7348 77.4331 27.6984 77.4331C26.6641 77.4331 25.822 78.2749 25.822 79.3114C25.8219 80.3474 26.664 81.1891 27.6984 81.1891Z" fill="black"/>
<path d="M56.9192 81.1891C57.9559 81.1891 58.7994 80.3474 58.7994 79.3114C58.7994 78.2751 57.9559 77.4331 56.9192 77.4331C55.8848 77.4331 55.043 78.2749 55.043 79.3114C55.0428 80.3474 55.8848 81.1891 56.9192 81.1891Z" fill="black"/>
<path d="M11.9711 81.1891C13.0073 81.1891 13.8493 80.3474 13.8493 79.3114C13.8493 78.2751 13.0073 77.4331 11.9711 77.4331C10.9365 77.4331 10.0947 78.2749 10.0947 79.3114C10.0947 80.3474 10.9367 81.1891 11.9711 81.1891Z" fill="black"/>
<path d="M76.0208 87.0736V86.5594C79.6183 86.1085 82.4131 83.03 82.4131 79.312C82.4131 75.5928 79.6183 72.5142 76.0208 72.0634V71.5503H6.39239V72.0634C2.79292 72.5144 0 75.5927 0 79.312C0 83.03 2.79292 86.1088 6.39239 86.5594V87.0736H76.0208ZM11.9713 75.607C13.6974 75.607 15.1384 76.7984 15.5486 78.3987H24.1223C24.5305 76.7984 25.9713 75.607 27.6981 75.607C29.4242 75.607 30.8659 76.7984 31.2758 78.3987H38.164C38.5777 76.6561 40.1383 75.3542 42.0053 75.3542C43.8711 75.3542 45.4296 76.6561 45.8457 78.3987H53.3435C53.7516 76.7984 55.1927 75.607 56.9193 75.607C58.6456 75.607 60.0871 76.7984 60.4969 78.3987H68.1058C68.5153 76.7984 69.9571 75.607 71.683 75.607C73.7256 75.607 75.386 77.2694 75.386 79.312C75.386 81.3531 73.7256 83.0157 71.683 83.0157C69.9571 83.0157 68.5153 81.8244 68.1058 80.2249H60.4969C60.0874 81.8244 58.6456 83.0157 56.9193 83.0157C55.193 83.0157 53.7517 81.8244 53.3437 80.2249H45.8459C45.4298 81.967 43.8713 83.2688 42.0054 83.2688C40.1386 83.2688 38.5778 81.967 38.1642 80.2249H31.276C30.866 81.8244 29.4243 83.0157 27.6983 83.0157C25.9715 83.0157 24.5307 81.8244 24.1224 80.2249H15.5488C15.1385 81.8244 13.6976 83.0157 11.9715 83.0157C9.92894 83.0157 8.26882 81.3531 8.26882 79.312C8.26882 77.2692 9.9288 75.607 11.9713 75.607Z" fill="black"/>
<path d="M71.683 81.1891C72.7178 81.1891 73.5596 80.3474 73.5596 79.3114C73.5596 78.2751 72.7178 77.4331 71.683 77.4331C70.6469 77.4331 69.8035 78.2749 69.8035 79.3114C69.8033 80.3474 70.6469 81.1891 71.683 81.1891Z" fill="black"/>
<path d="M69.8034 49.0821L63.6433 38.3489H44.1355V48.1692L33.3555 48.626V46.1146L18.9732 45.8863V48.1693H13.8496V54.6357H33.3555V57.3008H13.8496V65.6562H69.8034V49.0821ZM65.9266 54.6355H47.7376V41.5813H61.3608L65.9266 48.1084V54.6355Z" fill="black"/>
<path d="M61.1318 25.3401L79.8522 11.1864V3.1958L56.9192 16.8932L47.7373 35.6132H61.1318V25.3401Z" fill="black"/>
<path d="M112.269 47.7126L86.0159 0L82.4131 3.19584V9.81644L105.877 47.7126H112.269Z" fill="black"/>
<path d="M107.475 52.0017C107.628 65.2819 95.1472 65.656 95.1472 65.656C120.491 75.6102 112.269 52.0017 112.269 52.0017H107.475Z" fill="black"/>
</svg>
